<?xml version="1.0" standalone="no"?>
<!DOCTYPE svg PUBLIC "-//W3C//DTD SVG 20010904//EN"
 "http://www.w3.org/TR/2001/REC-SVG-20010904/DTD/svg10.dtd">
<svg version="1.0" xmlns="http://www.w3.org/2000/svg"
 width="400.000000pt" height="400.000000pt" viewBox="0 0 400.000000 400.000000"
 preserveAspectRatio="xMidYMid meet">
<metadata>
Created by potrace 1.11, written by Peter Selinger 2001-2013
</metadata>
<g transform="translate(0.000000,400.000000) scale(0.100000,-0.100000)"
fill="#000000" stroke="none">
<path d="M0 2000 l0 -2000 2000 0 2000 0 0 2000 0 2000 -2000 0 -2000 0 0
-2000z m1255 1921 c-3 -6 -11 -11 -16 -11 -5 0 -4 6 3 14 14 16 24 13 13 -3z
m432 -3 c-3 -8 -6 -5 -6 6 -1 11 2 17 5 13 3 -3 4 -12 1 -19z m105 3 c-4 -10
-7 -11 -10 -3 -2 7 -9 9 -14 6 -6 -4 -8 -3 -5 3 10 16 36 11 29 -6z m52 10 c3
-5 -1 -11 -9 -14 -9 -4 -12 -1 -8 9 6 16 10 17 17 5z m43 -13 c-3 -8 -6 -5 -6
6 -1 11 2 17 5 13 3 -3 4 -12 1 -19z m413 8 c0 -2 -9 -6 -20 -9 -11 -3 -18 -1
-14 4 5 9 34 13 34 5z m7 -22 c-3 -3 -12 -4 -19 -1 -8 3 -5 6 6 6 11 1 17 -2
13 -5z m-817 -201 c0 -41 -6 -41 -14 -1 -4 23 0 38 11 38 2 0 3 -16 3 -37z
m-140 -5 c0 -32 0 -32 -16 -10 -15 22 -12 42 7 42 5 0 9 -15 9 -32z m70 22 c0
-5 -2 -10 -4 -10 -3 0 -8 5 -11 10 -3 6 -1 10 4 10 6 0 11 -4 11 -10z m727
-47 c-3 -10 -5 -4 -5 12 0 17 2 24 5 18 2 -7 2 -21 0 -30z m-78 -807 c14 -8
31 -12 38 -9 21 8 -13 -90 -37 -106 -11 -7 -20 -24 -20 -38 0 -22 -4 -24 -33
-22 -18 2 -38 0 -44 -4 -6 -4 -14 -3 -17 2 -3 5 -37 7 -76 5 -60 -4 -70 -2
-70 11 0 12 9 16 33 15 17 -1 37 -1 42 0 6 1 19 2 30 1 15 -2 12 3 -12 18 -18
11 -39 34 -48 52 -15 27 -15 33 -2 46 38 38 168 56 216 29z m416 -6 c-3 -5
-10 -10 -16 -10 -5 0 -9 5 -9 10 0 6 7 10 16 10 8 0 12 -4 9 -10z m-1005 -40
c0 -5 -4 -10 -9 -10 -6 0 -13 5 -16 10 -3 6 1 10 9 10 9 0 16 -4 16 -10z m16
-65 c-2 -5 -9 -9 -15 -7 -7 1 -10 -2 -6 -7 3 -6 12 -8 20 -4 9 3 15 -1 15 -11
0 -9 7 -16 15 -16 8 0 15 -6 15 -13 0 -8 -11 -12 -27 -11 -37 2 -37 2 -23 19
7 9 10 18 6 22 -3 3 -6 0 -6 -8 0 -8 -7 -4 -16 9 -13 19 -14 25 -2 39 11 15
11 16 -6 10 -16 -7 -17 -5 -5 9 12 14 14 14 26 -2 7 -10 12 -23 9 -29z m1214
15 c-6 -11 -13 -20 -16 -20 -2 0 0 9 6 20 6 11 13 20 16 20 2 0 0 -9 -6 -20z
m-1428 -35 c3 -13 1 -22 -3 -19 -9 5 -13 44 -5 44 2 0 6 -11 8 -25z m838 -26
c0 -16 -5 -18 -27 -13 -33 8 -37 10 -30 21 3 4 17 9 31 9 19 2 26 -3 26 -17z
m70 6 c0 -8 -4 -15 -10 -15 -5 0 -10 7 -10 15 0 8 5 15 10 15 6 0 10 -7 10
-15z m71 -8 c-13 -13 -26 -3 -16 12 3 6 11 8 17 5 6 -4 6 -10 -1 -17z m79 2
c0 -5 -4 -9 -10 -9 -5 0 -10 7 -10 16 0 8 5 12 10 9 6 -3 10 -10 10 -16z m78
8 c8 -10 6 -13 -9 -14 -19 -2 -25 8 -12 20 8 9 9 9 21 -6z m-805 -23 c-4 -10
-9 -12 -15 -6 -12 12 -1 35 12 27 5 -3 6 -13 3 -21z m77 11 c0 -8 -4 -15 -9
-15 -13 0 -22 16 -14 24 11 11 23 6 23 -9z m100 1 c0 -6 -11 -12 -25 -12 -14
-1 -25 4 -25 11 0 7 11 13 25 13 14 0 25 -6 25 -12z m370 4 c0 -5 -4 -10 -9
-10 -6 0 -13 5 -16 10 -3 6 1 10 9 10 9 0 16 -4 16 -10z m-880 -20 c6 -11 8
-20 6 -20 -3 0 -10 9 -16 20 -6 11 -8 20 -6 20 3 0 10 -9 16 -20z m1520 -15
c0 -14 -7 -68 -15 -121 -16 -95 -17 -174 -4 -174 4 0 10 7 13 16 4 10 2 13 -6
8 -7 -4 -8 -3 -4 5 4 6 15 10 24 9 11 -2 18 5 20 18 2 16 8 20 22 17 21 -6 34
-43 20 -57 -16 -16 -11 -54 8 -65 13 -8 0 -10 -50 -11 -37 0 -70 -4 -73 -10
-3 -5 -15 -10 -27 -10 -19 0 -20 3 -13 63 4 34 9 95 10 135 2 40 8 78 13 85 5
7 13 36 17 65 6 42 11 52 26 52 14 0 19 -7 19 -25z m-930 -19 c0 -12 -10 -14
-38 -7 -2 1 0 6 3 11 9 15 35 12 35 -4z m80 5 c0 -11 -39 -21 -45 -11 -2 4 -2
10 2 14 10 9 43 7 43 -3z m75 -1 c4 -6 -5 -10 -20 -10 -15 0 -24 4 -20 10 3 6
12 10 20 10 8 0 17 -4 20 -10z m75 0 c0 -5 -9 -10 -20 -10 -11 0 -20 5 -20 10
0 6 9 10 20 10 11 0 20 -4 20 -10z m70 0 c0 -5 -7 -7 -15 -4 -8 4 -15 8 -15
10 0 2 7 4 15 4 8 0 15 -4 15 -10z m-470 -10 c0 -5 -4 -10 -10 -10 -5 0 -10 5
-10 10 0 6 5 10 10 10 6 0 10 -4 10 -10z m100 6 c0 -2 -9 -6 -20 -9 -11 -3
-20 -1 -20 4 0 5 9 9 20 9 11 0 20 -2 20 -4z m-765 -116 c10 -11 16 -20 13
-20 -3 0 -13 9 -23 20 -10 11 -16 20 -13 20 3 0 13 -9 23 -20z m333 -96 c-4
-3 -12 5 -18 18 -12 22 -12 22 6 6 10 -10 15 -20 12 -24z m534 1 c-3 -19 0
-25 14 -25 16 0 17 -1 1 -12 -20 -16 -7 -44 17 -35 11 4 16 19 16 47 0 22 5
40 10 40 6 0 10 -15 10 -32 0 -18 5 -40 10 -48 7 -11 10 1 10 39 0 68 6 63 13
-11 l6 -58 -60 0 -59 0 0 60 c0 33 4 60 9 60 4 0 6 -11 3 -25z m143 -35 c0
-78 -12 -78 -17 0 -2 36 1 60 7 60 6 0 10 -27 10 -60z m886 -1 l34 -6 -36 -2
c-36 -1 -50 12 -48 42 0 7 4 3 8 -8 5 -12 21 -22 42 -26z m-2002 -201 c-1 -87
-4 -133 -9 -118 -13 42 -8 260 6 260 2 0 4 -64 3 -142z m1116 104 c18 -16 43
-24 81 -27 56 -4 84 -14 48 -17 -10 0 -28 -2 -39 -3 -11 -1 -37 -3 -58 -4 -23
0 -36 -5 -32 -11 3 -6 17 -7 31 -4 14 4 24 2 24 -5 0 -6 -4 -11 -10 -11 -5 0
-10 -5 -10 -11 0 -5 5 -7 10 -4 6 3 10 2 10 -3 0 -16 -63 -23 -185 -21 -97 1
-114 3 -104 15 6 8 8 15 3 15 -5 1 -13 2 -19 4 -5 1 -14 3 -18 3 -5 1 -5 7 -2
12 4 7 13 7 24 0 12 -6 22 -5 29 2 8 8 16 7 28 -3 15 -12 17 -12 12 1 -4 12
-24 15 -89 16 -46 1 -91 -2 -100 -7 -9 -5 -21 -3 -27 3 -9 9 -12 7 -12 -7 -1
-17 -3 -17 -15 5 -8 14 -14 28 -15 31 0 13 60 16 70 4 11 -13 119 -13 139 -1
6 4 16 4 22 1 5 -4 18 0 27 8 19 16 107 44 134 42 10 -1 29 -11 43 -23z m-674
-53 c1 -53 12 -79 31 -79 6 0 5 6 -1 14 -9 10 -10 28 -4 56 16 81 28 47 31
-87 1 -73 7 -133 11 -133 24 0 39 13 34 27 -4 10 -2 14 5 10 6 -4 9 -22 7 -40
-2 -17 -4 -38 -4 -44 -2 -21 -51 -16 -51 5 0 10 -5 23 -12 30 -6 6 -12 42 -12
82 -1 66 -2 70 -24 70 -13 0 -20 4 -17 10 3 6 2 10 -3 10 -14 0 -19 105 -7
117 14 15 15 12 16 -48z m1039 51 c0 -5 -4 -10 -10 -10 -5 0 -10 5 -10 10 0 6
5 10 10 10 6 0 10 -4 10 -10z m-1420 -35 c0 -24 -5 -35 -15 -35 -10 0 -15 11
-15 35 0 24 5 35 15 35 10 0 15 -11 15 -35z m267 -42 c-2 -16 -4 -5 -4 22 0
28 2 40 4 28 2 -13 2 -35 0 -50z m1039 15 c-19 -26 -22 -7 -4 25 7 13 13 17
15 10 3 -7 -3 -23 -11 -35z m128 9 c2 -35 -18 -29 -22 7 -2 19 1 27 9 24 7 -2
13 -16 13 -31z m200 26 c-5 -5 -12 -12 -16 -18 -4 -6 -8 -2 -8 8 0 9 7 17 17
17 9 0 12 -3 7 -7z m-1396 -67 c-4 -6 -8 -18 -8 -27 0 -12 -7 -17 -20 -16 -11
1 -20 8 -20 16 0 8 3 11 7 8 7 -8 33 11 33 25 0 5 -4 7 -8 4 -11 -7 -9 25 3
44 8 12 11 8 16 -15 3 -16 2 -34 -3 -39z m265 -28 c-7 -98 -13 -113 -14 -37 0
30 -3 48 -6 41 -7 -17 -23 -5 -23 19 0 21 16 26 23 7 3 -7 6 2 6 20 1 17 5 32
11 32 6 0 7 -32 3 -82z m967 72 c0 -5 -4 -10 -10 -10 -5 0 -10 5 -10 10 0 6 5
10 10 10 6 0 10 -4 10 -10z m-1444 -65 c1 -30 -2 -55 -7 -55 -7 0 -17 82 -11
100 9 26 17 5 18 -45z m1134 45 c0 -5 -7 -10 -15 -10 -8 0 -15 5 -15 10 0 6 7
10 15 10 8 0 15 -4 15 -10z m40 0 c0 -5 -2 -10 -4 -10 -3 0 -8 5 -11 10 -3 6
-1 10 4 10 6 0 11 -4 11 -10z m-430 -4 c0 -2 -7 -6 -15 -10 -8 -3 -15 -1 -15
4 0 6 7 10 15 10 8 0 15 -2 15 -4z m-770 -101 c0 -43 -4 -75 -10 -75 -5 0 -10
18 -10 40 0 22 -5 49 -12 59 -9 15 -9 23 1 35 24 29 31 17 31 -59z m385 16 c3
-5 1 -12 -5 -16 -5 -3 -10 1 -10 9 0 18 6 21 15 7z m-329 -38 c-11 -11 -19 6
-11 24 8 17 8 17 12 0 3 -10 2 -21 -1 -24z m141 -50 c-2 -16 -4 -5 -4 22 0 28
2 40 4 28 2 -13 2 -35 0 -50z m1623 62 c0 -8 -52 -26 -58 -20 -3 2 6 9 19 14
28 11 39 13 39 6z m30 -5 c0 -5 -2 -10 -4 -10 -3 0 -8 5 -11 10 -3 6 -1 10 4
10 6 0 11 -4 11 -10z m61 -43 c-8 -8 -11 -5 -11 9 0 27 14 41 18 19 2 -9 -1
-22 -7 -28z m-108 6 c-7 -2 -19 -2 -25 0 -7 3 -2 5 12 5 14 0 19 -2 13 -5z
m-750 -20 c15 -3 27 -10 27 -15 0 -6 7 -4 16 3 14 12 16 11 12 -6 -2 -11 -11
-20 -20 -20 -9 0 -20 -4 -25 -9 -5 -5 -2 -6 6 -1 9 5 12 4 8 -2 -4 -7 -42 -10
-94 -9 l-86 1 -1 28 c-1 15 2 27 6 27 4 0 8 -5 8 -12 0 -7 5 -5 13 4 6 9 21
19 32 21 19 5 29 4 98 -10z m-643 -31 c0 -9 -5 -24 -10 -32 -7 -11 -10 -5 -10
23 0 23 4 36 10 32 6 -3 10 -14 10 -23z m360 18 c0 -5 -7 -10 -16 -10 -8 0
-12 5 -9 10 3 6 10 10 16 10 5 0 9 -4 9 -10z m114 -6 c9 -22 -3 -32 -14 -14
-12 19 -12 30 -1 30 5 0 12 -7 15 -16z m336 7 c0 -18 -17 -20 -36 -6 -18 14
-18 14 9 15 15 0 27 -4 27 -9z m290 -106 c0 -14 -4 -25 -9 -25 -4 0 -6 11 -3
25 2 14 6 25 8 25 2 0 4 -11 4 -25z m-980 -2 c-8 -3 -18 -11 -22 -17 -5 -7 -8
-4 -8 7 0 11 7 17 23 16 15 0 17 -2 7 -6z m182 -16 c21 4 28 2 28 -11 0 -9 -3
-16 -7 -16 -24 0 -163 35 -163 40 0 4 25 1 57 -6 31 -7 69 -10 85 -7z m-730
-2 c5 -6 8 -5 8 2 0 7 6 10 13 8 8 -4 13 -37 15 -107 3 -128 0 -138 -44 -138
l-34 0 0 59 c0 33 4 61 9 63 11 4 21 97 10 104 -5 3 -9 9 -9 15 0 11 22 7 32
-6z m1523 -26 c20 7 38 11 39 9 5 -6 66 -393 66 -420 0 -34 -14 -38 -73 -20
-49 14 -49 14 -175 -33 -225 -84 -290 -125 -331 -207 -19 -40 -21 -41 -21 -15
0 61 -61 130 -150 171 -67 30 -296 90 -311 80 -6 -3 -38 -15 -70 -24 l-60 -18
-25 23 -25 23 52 194 c28 106 54 203 56 216 6 26 5 26 47 8 27 -11 38 -11 65
0 28 12 41 10 117 -12 47 -13 90 -22 95 -19 5 4 9 2 9 -3 0 -4 25 -19 55 -31
70 -29 132 -85 150 -136 8 -22 14 -32 15 -23 0 27 57 85 113 116 29 16 102 48
162 72 61 24 116 49 124 56 12 11 17 10 27 -4 11 -15 16 -15 49 -3z m-1385 -9
c0 -5 -4 -10 -10 -10 -5 0 -10 5 -10 10 0 6 5 10 10 10 6 0 10 -4 10 -10z
m894 -12 c9 -9 10 -16 2 -24 -13 -14 -46 -6 -46 10 0 27 23 34 44 14z m-797
-20 c-3 -8 -6 -5 -6 6 -1 11 2 17 5 13 3 -3 4 -12 1 -19z m-97 -12 c0 -3 -4
-8 -10 -11 -5 -3 -10 -1 -10 4 0 6 5 11 10 11 6 0 10 -2 10 -4z m1491 -59 c-8
-8 -11 -3 -11 19 1 25 2 27 11 11 8 -14 8 -22 0 -30z m272 0 c-4 -27 -11 -37
-24 -37 -11 0 -19 -4 -19 -8 0 -4 -10 -9 -22 -9 -45 -3 -63 -8 -73 -21 -8 -10
-11 -9 -12 8 -1 11 2 18 6 15 5 -2 14 1 20 9 8 10 9 15 1 18 -7 2 -6 9 2 21 9
12 31 20 63 23 28 2 52 9 54 15 7 22 10 1 4 -34z m337 28 c7 -8 13 -38 14 -67
1 -46 -1 -53 -19 -53 -11 0 -28 6 -37 13 -15 12 -20 12 -35 -4 -17 -17 -18
-17 -21 0 -2 10 1 23 7 29 14 14 14 57 0 57 -7 0 -9 -9 -6 -21 3 -12 0 -22 -8
-25 -7 -3 -16 -12 -19 -20 -4 -10 -2 -12 6 -8 8 5 9 2 4 -12 -5 -10 -10 -35
-13 -54 -4 -36 -23 -57 -34 -38 -4 6 -12 7 -19 3 -9 -6 -11 2 -7 31 4 22 9 63
13 91 3 29 11 56 17 60 10 6 108 30 133 32 6 1 17 -6 24 -14z m-1970 -65 c0
-5 -2 -10 -4 -10 -3 0 -8 5 -11 10 -3 6 -1 10 4 10 6 0 11 -4 11 -10z m1647
-22 c-3 -7 -5 -2 -5 12 0 14 2 19 5 13 2 -7 2 -19 0 -25z m-2227 -14 c0 -2
-12 -4 -26 -4 -14 0 -23 4 -20 9 6 8 46 4 46 -5z m1967 -36 c-3 -7 -5 -2 -5
12 0 14 2 19 5 13 2 -7 2 -19 0 -25z m247 -42 c-4 -36 -10 -66 -13 -66 -4 0
-3 32 2 70 12 88 20 85 11 -4z m326 8 c0 -34 -9 -40 -62 -43 -21 0 -25 3 -21
19 3 11 11 16 19 13 9 -3 14 2 14 14 0 25 7 32 31 30 14 -1 19 -9 19 -33z
m-20 -102 c0 -4 -31 -7 -70 -7 -87 0 -93 13 -7 17 65 3 77 1 77 -10z m-335
-12 c-3 -5 -10 -10 -16 -10 -5 0 -9 5 -9 10 0 6 7 10 16 10 8 0 12 -4 9 -10z
m85 3 c0 -5 -16 -8 -35 -9 -19 0 -35 3 -35 8 0 4 16 8 35 8 19 0 35 -3 35 -7z
m40 -3 c0 -5 -7 -10 -15 -10 -8 0 -15 5 -15 10 0 6 7 10 15 10 8 0 15 -4 15
-10z m40 0 c0 -5 -2 -10 -4 -10 -3 0 -8 5 -11 10 -3 6 -1 10 4 10 6 0 11 -4
11 -10z m-2375 -70 c-28 -12 -95 -12 -95 0 0 6 25 10 58 9 41 0 51 -3 37 -9z
m2643 -7 c-15 -2 -42 -2 -60 0 -18 2 -6 4 27 4 33 0 48 -2 33 -4z m-128 -12
c-8 -4 -37 -5 -65 -1 l-50 7 65 1 c39 1 59 -2 50 -7z m-310 -11 c0 -5 -4 -10
-10 -10 -5 0 -10 5 -10 10 0 6 5 10 10 10 6 0 10 -4 10 -10z m80 1 c0 -5 -9
-7 -20 -4 -11 3 -20 7 -20 9 0 2 9 4 20 4 11 0 20 -4 20 -9z m40 1 c0 -5 -7
-9 -15 -9 -8 0 -12 4 -9 9 3 4 9 8 15 8 5 0 9 -4 9 -8z m40 -2 c0 -5 -2 -10
-4 -10 -3 0 -8 5 -11 10 -3 6 -1 10 4 10 6 0 11 -4 11 -10z m228 3 c-10 -2
-26 -2 -35 0 -10 3 -2 5 17 5 19 0 27 -2 18 -5z m-2158 -127 c0 -98 -3 -125
-14 -129 -22 -9 -26 14 -26 139 0 107 1 114 20 114 19 0 20 -7 20 -124z m57
92 c-3 -8 -6 -5 -6 6 -1 11 2 17 5 13 3 -3 4 -12 1 -19z m1363 11 c-36 -24
-150 -78 -150 -71 0 5 33 24 73 44 71 35 106 47 77 27z m-1520 -19 c0 -5 -8
-10 -17 -10 -15 0 -16 2 -3 10 19 12 20 12 20 0z m550 6 c0 -3 -4 -8 -10 -11
-5 -3 -10 -1 -10 4 0 6 5 11 10 11 6 0 10 -2 10 -4z m49 -20 c15 -8 20 -16 12
-20 -6 -4 -11 -3 -11 3 0 6 -7 7 -17 4 -12 -5 -14 -3 -8 7 6 10 4 12 -9 7 -10
-4 -15 -3 -11 3 8 13 15 12 44 -4z m75 -31 c20 -8 36 -18 36 -20 0 -3 -16 2
-36 10 -20 8 -41 12 -47 8 -6 -3 -7 -1 -3 5 9 15 6 15 50 -3z m686 -13 c0 -4
-21 -18 -46 -30 -53 -26 -50 -11 4 18 44 23 42 22 42 12z m-1370 -12 c0 -5 -5
-10 -11 -10 -5 0 -7 5 -4 10 3 6 8 10 11 10 2 0 4 -4 4 -10z m167 -32 c-3 -8
-6 -5 -6 6 -1 11 2 17 5 13 3 -3 4 -12 1 -19z m-162 3 c3 -5 2 -12 -3 -15 -5
-3 -9 1 -9 9 0 17 3 19 12 6z m2192 -37 c4 0 37 -9 73 -20 l65 -19 -55 -6
c-54 -5 -97 1 -153 23 -31 12 -20 28 21 28 12 0 22 6 22 13 0 8 3 7 10 -3 5
-8 13 -15 17 -16z m143 -10 c13 -14 12 -15 -15 -8 -16 4 -48 13 -70 20 l-40
14 55 -6 c30 -3 62 -12 70 -20z m-2353 -36 c-3 -8 -6 -5 -6 6 -1 11 2 17 5 13
3 -3 4 -12 1 -19z m2123 -24 c0 -51 13 -69 65 -89 25 -9 44 -19 41 -22 -2 -2
-33 8 -68 24 l-63 28 3 53 c3 58 22 63 22 6z m-873 14 c-3 -8 -6 -5 -6 6 -1
11 2 17 5 13 3 -3 4 -12 1 -19z m13 -28 c0 -5 -4 -10 -10 -10 -5 0 -10 5 -10
10 0 6 5 10 10 10 6 0 10 -4 10 -10z m-3 -112 c-3 -7 -5 -2 -5 12 0 14 2 19 5
13 2 -7 2 -19 0 -25z m801 -56 c6 -2 12 3 12 12 0 19 2 19 51 4 38 -11 39 -11
32 -52 -7 -51 -11 -56 -27 -34 -7 10 -15 15 -18 13 -3 -3 -21 10 -42 28 -29
27 -36 40 -35 68 l2 34 6 -34 c3 -19 12 -36 19 -39z m-2178 29 c-8 -5 -26 -11
-40 -15 -21 -5 -20 -3 5 9 32 15 60 20 35 6z m2204 -90 c-6 -7 -54 29 -54 40
0 6 13 0 29 -13 15 -13 27 -25 25 -27z m-4 -17 c46 -31 44 -54 -6 -54 -39 0
-117 46 -107 63 3 5 2 7 -3 4 -6 -3 -16 -2 -24 4 -10 6 4 9 43 9 45 0 66 -5
97 -26z m-1968 -56 c-7 -7 -12 -8 -12 -2 0 14 12 26 19 19 2 -3 -1 -11 -7 -17z
m-37 -24 c-24 -18 -83 -50 -73 -39 10 10 81 54 88 54 3 0 -4 -7 -15 -15z
m-147 -5 c-11 -6 -24 -6 -34 -1 -12 7 -8 9 18 10 26 1 30 -1 16 -9z m2040 -23
c15 -13 38 -34 52 -46 18 -15 20 -19 5 -11 -25 12 -103 80 -92 81 4 0 20 -11
35 -24z m-38 -79 c25 -4 25 -4 -2 -6 -28 -1 -98 50 -98 72 0 6 17 -5 38 -25
20 -20 48 -38 62 -41z m273 6 c-15 -5 -73 24 -73 37 0 6 19 1 43 -11 23 -12
37 -24 30 -26z m-2098 12 c-48 -41 -74 -50 -30 -11 22 19 45 35 50 36 6 0 -3
-11 -20 -25z m63 -42 c-35 -35 -49 -43 -78 -42 -19 0 -29 3 -22 6 6 2 9 9 6
15 -3 5 9 23 27 39 26 22 43 28 72 27 l37 -2 -42 -43z m-258 -6 c0 -2 -10 -12
-22 -23 l-23 -19 19 23 c18 21 26 27 26 19z m260 -90 l-53 -52 49 56 c27 31
51 55 54 52 2 -2 -20 -27 -50 -56z m-320 38 c-7 -8 -17 -15 -23 -15 -6 0 -2 7
9 15 25 19 30 19 14 0z m2290 -81 c0 -3 -13 4 -30 16 -16 12 -30 24 -30 26 0
3 14 -4 30 -16 17 -12 30 -24 30 -26z m-130 -70 c0 0 -6 -1 -14 -1 -8 0 -14 3
-13 6 1 4 -17 23 -39 44 -36 32 -46 36 -74 30 -23 -4 -31 -3 -26 5 4 6 13 9
20 6 8 -3 17 -1 21 5 4 7 30 -10 66 -41 32 -29 59 -53 59 -54z m-246 67 c-2
-3 -12 3 -22 13 -16 17 -16 18 5 5 12 -7 20 -15 17 -18z m-1354 -1 c-8 -5 -22
-10 -30 -10 -13 0 -13 1 0 10 8 5 22 10 30 10 13 0 13 -1 0 -10z m-294 -17
c-11 -11 -46 -14 -46 -3 0 6 12 10 27 10 14 0 23 -3 19 -7z m130 -5 c4 -6 3
-8 -4 -5 -9 6 -65 -58 -75 -87 -2 -6 -7 -9 -10 -6 -5 5 69 110 78 110 2 0 7
-5 11 -12z m-159 -33 c-8 -9 -16 -10 -24 -3 -8 6 -10 4 -6 -11 4 -16 1 -19
-18 -14 -13 4 -20 2 -16 -4 3 -5 0 -10 -8 -10 -21 0 -19 7 10 37 18 19 33 26
50 22 19 -3 21 -7 12 -17z m1863 -81 c53 -54 59 -63 33 -50 -18 9 -40 17 -50
19 -10 1 -24 6 -30 10 -8 5 -13 3 -13 -4 0 -8 -4 -8 -15 1 -8 7 -21 10 -29 7
-8 -3 -22 3 -31 13 -9 10 -23 16 -31 13 -8 -3 -14 0 -14 6 0 5 -10 16 -22 22
-20 10 -18 7 6 -20 19 -19 32 -27 37 -20 4 7 8 5 12 -6 4 -9 3 -13 -3 -10 -16
10 -12 -7 7 -27 9 -10 12 -18 6 -18 -9 0 -113 113 -113 122 0 2 42 5 93 6 l92
3 65 -67z m-2009 23 l-24 -22 19 27 c10 14 21 24 23 22 3 -3 -6 -15 -18 -27z
m714 23 c17 -7 15 -8 -10 -7 -16 0 -48 -3 -70 -8 -22 -4 -37 -4 -33 0 4 5 25
11 45 15 49 10 45 10 68 0z m-441 -45 c-9 -14 -18 -25 -21 -25 -5 0 5 18 20
38 17 22 18 13 1 -13z m1026 -3 c0 -11 -9 -22 -20 -25 -36 -9 -21 -25 33 -33
28 -5 92 -7 141 -7 48 1 85 -1 82 -4 -4 -4 -34 -7 -69 -8 -169 -4 -446 -16
-474 -21 l-32 -5 6 -52 c3 -29 11 -55 17 -59 7 -5 6 -8 -4 -8 -12 -1 -11 -3 3
-11 9 -5 22 -7 27 -4 5 3 7 0 4 -8 -4 -10 3 -13 26 -9 16 2 30 9 30 14 0 6 9
8 20 5 13 -3 20 0 20 9 0 12 -35 20 -64 15 -10 -2 -26 19 -26 34 0 6 5 3 10
-5 8 -13 10 -12 10 3 0 10 8 17 20 17 11 0 20 5 20 11 0 8 4 8 14 0 8 -7 25
-11 38 -10 47 4 68 -1 68 -17 0 -10 -6 -14 -15 -10 -8 3 -15 1 -15 -4 0 -6 9
-10 20 -10 12 0 20 -7 20 -16 0 -10 6 -14 14 -11 8 3 17 -1 20 -9 7 -19 -4
-45 -16 -38 -5 3 -8 -2 -6 -12 2 -14 -4 -20 -24 -22 -16 -2 -28 2 -28 8 0 6
-10 8 -25 4 -15 -4 -25 -2 -25 5 0 6 3 10 8 10 21 -4 23 3 8 20 -18 20 -46 18
-80 -5 -19 -13 -19 -14 5 -23 13 -5 22 -10 19 -11 -65 -11 -110 -11 -110 1 0
11 -2 11 -10 -1 -8 -13 -10 -12 -10 3 0 9 6 17 13 18 7 0 7 2 2 5 -6 2 -10 33
-9 72 1 37 0 54 -3 37 -7 -45 -20 -56 -50 -44 -15 5 -32 8 -39 5 -8 -3 -16 -1
-19 4 -3 5 -20 6 -38 3 -17 -2 -41 -4 -52 -3 -11 1 -28 2 -37 3 -10 1 -18 5
-18 9 0 4 -5 8 -11 8 -5 0 -8 -4 -5 -8 3 -5 -7 -8 -22 -6 -15 1 -48 5 -74 8
-33 3 -48 1 -48 -7 0 -8 -3 -7 -9 2 -5 7 -14 10 -20 7 -6 -4 -9 -12 -6 -17 4
-5 2 -9 -4 -9 -5 0 -11 6 -14 13 -3 9 -9 9 -26 -1 -16 -9 -21 -9 -21 0 0 9 -3
9 -12 0 -14 -14 -32 -16 -24 -3 8 13 -53 -2 -93 -23 l-34 -18 56 104 55 103
124 7 c68 3 161 13 208 22 47 9 111 15 143 13 31 -1 57 0 57 3 0 3 86 7 190 8
184 4 190 3 190 -16z m-1087 -19 c-3 -7 -6 -13 -8 -13 -2 0 -5 6 -8 13 -3 8 1
14 8 14 7 0 11 -6 8 -14z m1579 -58 l20 -30 -26 30 c-14 17 -26 37 -25 45 0
13 1 13 6 0 3 -8 15 -28 25 -45z m-235 -57 c-3 -8 -6 -5 -6 6 -1 11 2 17 5 13
3 -3 4 -12 1 -19z m51 -33 c-3 -3 -9 2 -12 12 -6 14 -5 15 5 6 7 -7 10 -15 7
-18z m-551 -71 c-3 -3 -12 -4 -19 -1 -8 3 -5 6 6 6 11 1 17 -2 13 -5z m-229
-11 c-10 -2 -28 -2 -40 0 -13 2 -5 4 17 4 22 1 32 -1 23 -4z m275 -30 c-7 -2
-19 -2 -25 0 -7 3 -2 5 12 5 14 0 19 -2 13 -5z"/>
<path d="M1916 2023 c-6 -14 -5 -15 5 -6 7 7 10 15 7 18 -3 3 -9 -2 -12 -12z"/>
<path d="M971 1864 c0 -11 3 -14 6 -6 3 7 2 16 -1 19 -3 4 -6 -2 -5 -13z"/>
<path d="M3045 1690 c-4 -6 -3 -16 3 -22 6 -6 12 -6 17 2 4 6 3 16 -3 22 -6 6
-12 6 -17 -2z"/>
<path d="M1041 1374 c0 -11 3 -14 6 -6 3 7 2 16 -1 19 -3 4 -6 -2 -5 -13z"/>
<path d="M1040 1304 c0 -8 5 -12 10 -9 6 3 10 10 10 16 0 5 -4 9 -10 9 -5 0
-10 -7 -10 -16z"/>
<path d="M1051 1224 c0 -11 3 -14 6 -6 3 7 2 16 -1 19 -3 4 -6 -2 -5 -13z"/>
<path d="M2828 473 c7 -3 16 -2 19 1 4 3 -2 6 -13 5 -11 0 -14 -3 -6 -6z"/>
<path d="M1840 379 c0 -11 4 -18 10 -14 5 3 7 12 3 20 -7 21 -13 19 -13 -6z"/>
<path d="M1400 350 c0 -5 5 -10 11 -10 5 0 7 5 4 10 -3 6 -8 10 -11 10 -2 0
-4 -4 -4 -10z"/>
<path d="M2068 153 c5 -21 7 -23 10 -9 2 10 0 22 -6 28 -6 6 -7 0 -4 -19z"/>
<path d="M1896 151 c-4 -5 -2 -12 3 -15 5 -4 12 -2 15 3 4 5 2 12 -3 15 -5 4
-12 2 -15 -3z"/>
</g>
</svg>
